solid OpenSCAD_Model
  facet normal -0.707107 -0.707107 0
    outer loop
      vertex -2.80316 -6.76742 -5
      vertex -6.76742 -2.80316 0
      vertex -6.76742 -2.80316 -5
    endloop
  endfacet
  facet normal -0.707107 -0.707107 0
    outer loop
      vertex -6.76742 -2.80316 0
      vertex -2.80316 -6.76742 -5
      vertex -2.80316 -6.76742 0
    endloop
  endfacet
  facet normal 0 1 -0
    outer loop
      vertex 2.80316 6.76742 -5
      vertex 0.799999 6.76742 0
      vertex 2.80316 6.76742 0
    endloop
  endfacet
  facet normal 0 1 0
    outer loop
      vertex 0.799999 6.76742 0
      vertex 2.80316 6.76742 -5
      vertex -0.799999 6.76742 0
    endloop
  endfacet
  facet normal 0 1 0
    outer loop
      vertex -2.80316 6.76742 -5
      vertex -0.799999 6.76742 0
      vertex 2.80316 6.76742 -5
    endloop
  endfacet
  facet normal 0 1 0
    outer loop
      vertex -0.799999 6.76742 0
      vertex -2.80316 6.76742 -5
      vertex -2.80316 6.76742 0
    endloop
  endfacet
  facet normal 0.707107 0.707107 0
    outer loop
      vertex 6.76742 2.80316 0
      vertex 2.80316 6.76742 -5
      vertex 2.80316 6.76742 0
    endloop
  endfacet
  facet normal 0.707107 0.707107 0
    outer loop
      vertex 2.80316 6.76742 -5
      vertex 6.76742 2.80316 0
      vertex 6.76742 2.80316 -5
    endloop
  endfacet
  facet normal 1 -0 0
    outer loop
      vertex 6.76742 0.799999 0
      vertex 6.76742 2.80316 -5
      vertex 6.76742 2.80316 0
    endloop
  endfacet
  facet normal 1 -0 0
    outer loop
      vertex 6.76742 -0.799999 0
      vertex 6.76742 2.80316 -5
      vertex 6.76742 0.799999 0
    endloop
  endfacet
  facet normal 1 0 0
    outer loop
      vertex 6.76742 -2.80316 -5
      vertex 6.76742 -0.799999 0
      vertex 6.76742 -2.80316 0
    endloop
  endfacet
  facet normal 1 0 0
    outer loop
      vertex 6.76742 -0.799999 0
      vertex 6.76742 -2.80316 -5
      vertex 6.76742 2.80316 -5
    endloop
  endfacet
  facet normal 0 -1 0
    outer loop
      vertex -2.80316 -6.76742 -5
      vertex -0.799999 -6.76742 0
      vertex -2.80316 -6.76742 0
    endloop
  endfacet
  facet normal 0 -1 -0
    outer loop
      vertex -0.799999 -6.76742 0
      vertex -2.80316 -6.76742 -5
      vertex 0.799999 -6.76742 0
    endloop
  endfacet
  facet normal 0 -1 0
    outer loop
      vertex 2.80316 -6.76742 -5
      vertex 0.799999 -6.76742 0
      vertex -2.80316 -6.76742 -5
    endloop
  endfacet
  facet normal 0 -1 0
    outer loop
      vertex 0.799999 -6.76742 0
      vertex 2.80316 -6.76742 -5
      vertex 2.80316 -6.76742 0
    endloop
  endfacet
  facet normal -1 0 0
    outer loop
      vertex -6.76742 2.80316 -5
      vertex -6.76742 0.799999 0
      vertex -6.76742 2.80316 0
    endloop
  endfacet
  facet normal -1 0 0
    outer loop
      vertex -6.76742 2.80316 -5
      vertex -6.76742 -0.799999 0
      vertex -6.76742 0.799999 0
    endloop
  endfacet
  facet normal -1 0 0
    outer loop
      vertex -6.76742 -2.80316 -5
      vertex -6.76742 -0.799999 0
      vertex -6.76742 2.80316 -5
    endloop
  endfacet
  facet normal -1 -0 0
    outer loop
      vertex -6.76742 -0.799999 0
      vertex -6.76742 -2.80316 -5
      vertex -6.76742 -2.80316 0
    endloop
  endfacet
  facet normal 0.707107 -0.707107 0
    outer loop
      vertex 2.80316 -6.76742 0
      vertex 6.76742 -2.80316 -5
      vertex 6.76742 -2.80316 0
    endloop
  endfacet
  facet normal 0.707107 -0.707107 0
    outer loop
      vertex 6.76742 -2.80316 -5
      vertex 2.80316 -6.76742 0
      vertex 2.80316 -6.76742 -5
    endloop
  endfacet
  facet normal -0.707107 0.707107 0
    outer loop
      vertex -6.76742 2.80316 -5
      vertex -2.80316 6.76742 0
      vertex -2.80316 6.76742 -5
    endloop
  endfacet
  facet normal -0.707107 0.707107 0
    outer loop
      vertex -2.80316 6.76742 0
      vertex -6.76742 2.80316 -5
      vertex -6.76742 2.80316 0
    endloop
  endfacet
  facet normal 0 0 -1
    outer loop
      vertex 6.76742 -2.80316 -5
      vertex 6.02831 -2.49701 -5
      vertex 6.76742 2.80316 -5
    endloop
  endfacet
  facet normal 0 0 -1
    outer loop
      vertex 2.80316 -6.76742 -5
      vertex 6.02831 -2.49701 -5
      vertex 6.76742 -2.80316 -5
    endloop
  endfacet
  facet normal 0 0 -1
    outer loop
      vertex 2.80316 -6.76742 -5
      vertex 2.49701 -6.02831 -5
      vertex 6.02831 -2.49701 -5
    endloop
  endfacet
  facet normal 0 0 -1
    outer loop
      vertex 2.80316 -6.76742 -5
      vertex -2.49701 -6.02831 -5
      vertex 2.49701 -6.02831 -5
    endloop
  endfacet
  facet normal 0 0 -1
    outer loop
      vertex -2.80316 -6.76742 -5
      vertex -2.49701 -6.02831 -5
      vertex 2.80316 -6.76742 -5
    endloop
  endfacet
  facet normal 0 0 -1
    outer loop
      vertex -2.80316 -6.76742 -5
      vertex -6.02831 -2.49701 -5
      vertex -2.49701 -6.02831 -5
    endloop
  endfacet
  facet normal -0 0 -1
    outer loop
      vertex -6.02831 -2.49701 -5
      vertex -6.76742 -2.80316 -5
      vertex -6.02831 2.49701 -5
    endloop
  endfacet
  facet normal 0 0 -1
    outer loop
      vertex -6.76742 -2.80316 -5
      vertex -6.02831 -2.49701 -5
      vertex -2.80316 -6.76742 -5
    endloop
  endfacet
  facet normal 0 0 -1
    outer loop
      vertex 6.02831 2.49701 -5
      vertex 6.76742 2.80316 -5
      vertex 6.02831 -2.49701 -5
    endloop
  endfacet
  facet normal 0 0 -1
    outer loop
      vertex 6.02831 2.49701 -5
      vertex 2.80316 6.76742 -5
      vertex 6.76742 2.80316 -5
    endloop
  endfacet
  facet normal 0 0 -1
    outer loop
      vertex 2.49701 6.02831 -5
      vertex 2.80316 6.76742 -5
      vertex 6.02831 2.49701 -5
    endloop
  endfacet
  facet normal 0 0 -1
    outer loop
      vertex -2.49701 6.02831 -5
      vertex 2.80316 6.76742 -5
      vertex 2.49701 6.02831 -5
    endloop
  endfacet
  facet normal 0 0 -1
    outer loop
      vertex -2.49701 6.02831 -5
      vertex -2.80316 6.76742 -5
      vertex 2.80316 6.76742 -5
    endloop
  endfacet
  facet normal 0 0 -1
    outer loop
      vertex -6.02831 2.49701 -5
      vertex -2.80316 6.76742 -5
      vertex -2.49701 6.02831 -5
    endloop
  endfacet
  facet normal 0 0 -1
    outer loop
      vertex -6.02831 2.49701 -5
      vertex -6.76742 2.80316 -5
      vertex -2.80316 6.76742 -5
    endloop
  endfacet
  facet normal 0 0 -1
    outer loop
      vertex -6.76742 2.80316 -5
      vertex -6.02831 2.49701 -5
      vertex -6.76742 -2.80316 -5
    endloop
  endfacet
  facet normal 1 -0 0
    outer loop
      vertex 25 -0.799999 45.7808
      vertex 25 0.799999 0
      vertex 25 0.799999 45.7808
    endloop
  endfacet
  facet normal 1 0 0
    outer loop
      vertex 25 0.799999 0
      vertex 25 -0.799999 45.7808
      vertex 25 -0.799999 0
    endloop
  endfacet
  facet normal 0 0 -1
    outer loop
      vertex 6.76742 -0.799999 0
      vertex 25 0.799999 0
      vertex 25 -0.799999 0
    endloop
  endfacet
  facet normal -0 0 -1
    outer loop
      vertex 25 0.799999 0
      vertex 6.76742 -0.799999 0
      vertex 6.76742 0.799999 0
    endloop
  endfacet
  facet normal 0 0 -1
    outer loop
      vertex -25 -0.799999 0
      vertex -6.76742 0.799999 0
      vertex -6.76742 -0.799999 0
    endloop
  endfacet
  facet normal -0 0 -1
    outer loop
      vertex -6.76742 0.799999 0
      vertex -25 -0.799999 0
      vertex -25 0.799999 0
    endloop
  endfacet
  facet normal 0 0 -1
    outer loop
      vertex -0.799999 6.76742 0
      vertex 0.799999 25 0
      vertex 0.799999 6.76742 0
    endloop
  endfacet
  facet normal -0 0 -1
    outer loop
      vertex 0.799999 25 0
      vertex -0.799999 6.76742 0
      vertex -0.799999 25 0
    endloop
  endfacet
  facet normal 0 0 -1
    outer loop
      vertex -0.799999 -25 0
      vertex 0.799999 -6.76742 0
      vertex 0.799999 -25 0
    endloop
  endfacet
  facet normal -0 0 -1
    outer loop
      vertex 0.799999 -6.76742 0
      vertex -0.799999 -25 0
      vertex -0.799999 -6.76742 0
    endloop
  endfacet
  facet normal -1 0 0
    outer loop
      vertex -25 -0.799999 0
      vertex -25 0.799999 45.7808
      vertex -25 0.799999 0
    endloop
  endfacet
  facet normal -1 -0 0
    outer loop
      vertex -25 0.799999 45.7808
      vertex -25 -0.799999 0
      vertex -25 -0.799999 45.7808
    endloop
  endfacet
  facet normal 0 1 -0
    outer loop
      vertex 25 0.799999 0
      vertex 6.76742 0.799999 0
      vertex 25 0.799999 45.7808
    endloop
  endfacet
  facet normal 0 1 0
    outer loop
      vertex -6.76742 0.799999 0
      vertex -25 0.799999 0
      vertex -25 0.799999 45.7808
    endloop
  endfacet
  facet normal 0 -1 -0
    outer loop
      vertex 25 -0.799999 45.7808
      vertex 6.76742 -0.799999 0
      vertex 25 -0.799999 0
    endloop
  endfacet
  facet normal 0 -1 0
    outer loop
      vertex -25 -0.799999 45.7808
      vertex -25 -0.799999 0
      vertex -6.76742 -0.799999 0
    endloop
  endfacet
  facet normal 1 0 0
    outer loop
      vertex 0.799999 25 45.7808
      vertex 0.799999 6.76742 0
      vertex 0.799999 25 0
    endloop
  endfacet
  facet normal 1 0 0
    outer loop
      vertex 0.799999 -25 45.7808
      vertex 0.799999 -25 0
      vertex 0.799999 -6.76742 0
    endloop
  endfacet
  facet normal -1 0 0
    outer loop
      vertex -0.799999 -6.76742 0
      vertex -0.799999 -25 0
      vertex -0.799999 -25 45.7808
    endloop
  endfacet
  facet normal -1 0 0
    outer loop
      vertex -0.799999 25 0
      vertex -0.799999 6.76742 0
      vertex -0.799999 25 45.7808
    endloop
  endfacet
  facet normal 0 1 -0
    outer loop
      vertex 0.799999 25 0
      vertex -0.799999 25 45.7808
      vertex 0.799999 25 45.7808
    endloop
  endfacet
  facet normal 0 1 0
    outer loop
      vertex -0.799999 25 45.7808
      vertex 0.799999 25 0
      vertex -0.799999 25 0
    endloop
  endfacet
  facet normal 0 -1 0
    outer loop
      vertex -0.799999 -25 0
      vertex 0.799999 -25 45.7808
      vertex -0.799999 -25 45.7808
    endloop
  endfacet
  facet normal 0 -1 -0
    outer loop
      vertex 0.799999 -25 45.7808
      vertex -0.799999 -25 0
      vertex 0.799999 -25 0
    endloop
  endfacet
  facet normal 0 -0.929034 -0.369995
    outer loop
      vertex -14.3506 -34.6455 70
      vertex -0.799999 -25 45.7808
      vertex 14.3506 -34.6455 70
    endloop
  endfacet
  facet normal 2.84547e-07 -0.929034 -0.369995
    outer loop
      vertex -2.80316 -6.76742 0
      vertex -0.799999 -25 45.7808
      vertex -14.3506 -34.6455 70
    endloop
  endfacet
  facet normal 0 -0.929034 -0.369995
    outer loop
      vertex -0.799999 -25 45.7808
      vertex -2.80316 -6.76742 0
      vertex -0.799999 -6.76742 0
    endloop
  endfacet
  facet normal -0 -0.929034 -0.369995
    outer loop
      vertex 0.799999 -25 45.7808
      vertex 14.3506 -34.6455 70
      vertex -0.799999 -25 45.7808
    endloop
  endfacet
  facet normal -0 -0.929034 -0.369995
    outer loop
      vertex 2.80316 -6.76742 0
      vertex 0.799999 -25 45.7808
      vertex 0.799999 -6.76742 0
    endloop
  endfacet
  facet normal -2.84547e-07 -0.929034 -0.369995
    outer loop
      vertex 0.799999 -25 45.7808
      vertex 2.80316 -6.76742 0
      vertex 14.3506 -34.6455 70
    endloop
  endfacet
  facet normal -0.656926 0.656926 -0.369995
    outer loop
      vertex -2.80316 6.76742 0
      vertex -34.6455 14.3506 70
      vertex -14.3506 34.6455 70
    endloop
  endfacet
  facet normal -0.656926 0.656926 -0.369995
    outer loop
      vertex -34.6455 14.3506 70
      vertex -2.80316 6.76742 0
      vertex -6.76742 2.80316 0
    endloop
  endfacet
  facet normal 0.929034 -2.84547e-07 -0.369995
    outer loop
      vertex 34.6455 14.3506 70
      vertex 25 0.799999 45.7808
      vertex 6.76742 2.80316 0
    endloop
  endfacet
  facet normal 0.929034 0 -0.369995
    outer loop
      vertex 34.6455 14.3506 70
      vertex 25 -0.799999 45.7808
      vertex 25 0.799999 45.7808
    endloop
  endfacet
  facet normal 0.929034 0 -0.369995
    outer loop
      vertex 25 -0.799999 45.7808
      vertex 6.76742 -2.80316 0
      vertex 6.76742 -0.799999 0
    endloop
  endfacet
  facet normal 0.929034 2.84547e-07 -0.369995
    outer loop
      vertex 25 -0.799999 45.7808
      vertex 34.6455 -14.3506 70
      vertex 6.76742 -2.80316 0
    endloop
  endfacet
  facet normal 0.929034 0 -0.369995
    outer loop
      vertex 34.6455 -14.3506 70
      vertex 25 -0.799999 45.7808
      vertex 34.6455 14.3506 70
    endloop
  endfacet
  facet normal 0.929034 0 -0.369995
    outer loop
      vertex 6.76742 2.80316 0
      vertex 25 0.799999 45.7808
      vertex 6.76742 0.799999 0
    endloop
  endfacet
  facet normal 0.656926 0.656926 -0.369995
    outer loop
      vertex 34.6455 14.3506 70
      vertex 2.80316 6.76742 0
      vertex 14.3506 34.6455 70
    endloop
  endfacet
  facet normal 0.656926 0.656926 -0.369995
    outer loop
      vertex 2.80316 6.76742 0
      vertex 34.6455 14.3506 70
      vertex 6.76742 2.80316 0
    endloop
  endfacet
  facet normal 0 0 1
    outer loop
      vertex 34.6455 14.3506 70
      vertex 33.9064 14.0445 70
      vertex 34.6455 -14.3506 70
    endloop
  endfacet
  facet normal 0 0 1
    outer loop
      vertex 14.3506 34.6455 70
      vertex 33.9064 14.0445 70
      vertex 34.6455 14.3506 70
    endloop
  endfacet
  facet normal 0 0 1
    outer loop
      vertex 14.3506 34.6455 70
      vertex 14.0445 33.9064 70
      vertex 33.9064 14.0445 70
    endloop
  endfacet
  facet normal 0 0 1
    outer loop
      vertex 14.3506 34.6455 70
      vertex -14.0445 33.9064 70
      vertex 14.0445 33.9064 70
    endloop
  endfacet
  facet normal -0 0 1
    outer loop
      vertex -14.3506 34.6455 70
      vertex -14.0445 33.9064 70
      vertex 14.3506 34.6455 70
    endloop
  endfacet
  facet normal 0 0 1
    outer loop
      vertex -14.3506 34.6455 70
      vertex -33.9064 14.0445 70
      vertex -14.0445 33.9064 70
    endloop
  endfacet
  facet normal 0 0 1
    outer loop
      vertex -33.9064 14.0445 70
      vertex -34.6455 14.3506 70
      vertex -33.9064 -14.0445 70
    endloop
  endfacet
  facet normal -0 0 1
    outer loop
      vertex -34.6455 14.3506 70
      vertex -33.9064 14.0445 70
      vertex -14.3506 34.6455 70
    endloop
  endfacet
  facet normal -0 0 1
    outer loop
      vertex 33.9064 -14.0445 70
      vertex 34.6455 -14.3506 70
      vertex 33.9064 14.0445 70
    endloop
  endfacet
  facet normal 0 0 1
    outer loop
      vertex 33.9064 -14.0445 70
      vertex 14.3506 -34.6455 70
      vertex 34.6455 -14.3506 70
    endloop
  endfacet
  facet normal -0 0 1
    outer loop
      vertex 14.0445 -33.9064 70
      vertex 14.3506 -34.6455 70
      vertex 33.9064 -14.0445 70
    endloop
  endfacet
  facet normal -0 0 1
    outer loop
      vertex -14.0445 -33.9064 70
      vertex 14.3506 -34.6455 70
      vertex 14.0445 -33.9064 70
    endloop
  endfacet
  facet normal 0 0 1
    outer loop
      vertex -14.0445 -33.9064 70
      vertex -14.3506 -34.6455 70
      vertex 14.3506 -34.6455 70
    endloop
  endfacet
  facet normal 0 0 1
    outer loop
      vertex -33.9064 -14.0445 70
      vertex -14.3506 -34.6455 70
      vertex -14.0445 -33.9064 70
    endloop
  endfacet
  facet normal 0 0 1
    outer loop
      vertex -33.9064 -14.0445 70
      vertex -34.6455 -14.3506 70
      vertex -14.3506 -34.6455 70
    endloop
  endfacet
  facet normal 0 0 1
    outer loop
      vertex -34.6455 -14.3506 70
      vertex -33.9064 -14.0445 70
      vertex -34.6455 14.3506 70
    endloop
  endfacet
  facet normal 0.656926 -0.656926 -0.369995
    outer loop
      vertex 34.6455 -14.3506 70
      vertex 2.80316 -6.76742 0
      vertex 6.76742 -2.80316 0
    endloop
  endfacet
  facet normal 0.656926 -0.656926 -0.369995
    outer loop
      vertex 2.80316 -6.76742 0
      vertex 34.6455 -14.3506 70
      vertex 14.3506 -34.6455 70
    endloop
  endfacet
  facet normal 0 0.929034 -0.369995
    outer loop
      vertex 14.3506 34.6455 70
      vertex 0.799999 25 45.7808
      vertex -14.3506 34.6455 70
    endloop
  endfacet
  facet normal -2.84547e-07 0.929034 -0.369995
    outer loop
      vertex 2.80316 6.76742 0
      vertex 0.799999 25 45.7808
      vertex 14.3506 34.6455 70
    endloop
  endfacet
  facet normal 0 0.929034 -0.369995
    outer loop
      vertex 0.799999 25 45.7808
      vertex 2.80316 6.76742 0
      vertex 0.799999 6.76742 0
    endloop
  endfacet
  facet normal 0 0.929034 -0.369995
    outer loop
      vertex -0.799999 25 45.7808
      vertex -14.3506 34.6455 70
      vertex 0.799999 25 45.7808
    endloop
  endfacet
  facet normal 0 0.929034 -0.369995
    outer loop
      vertex -2.80316 6.76742 0
      vertex -0.799999 25 45.7808
      vertex -0.799999 6.76742 0
    endloop
  endfacet
  facet normal 2.84547e-07 0.929034 -0.369995
    outer loop
      vertex -0.799999 25 45.7808
      vertex -2.80316 6.76742 0
      vertex -14.3506 34.6455 70
    endloop
  endfacet
  facet normal -0.656926 -0.656926 -0.369995
    outer loop
      vertex -2.80316 -6.76742 0
      vertex -34.6455 -14.3506 70
      vertex -6.76742 -2.80316 0
    endloop
  endfacet
  facet normal -0.656926 -0.656926 -0.369995
    outer loop
      vertex -34.6455 -14.3506 70
      vertex -2.80316 -6.76742 0
      vertex -14.3506 -34.6455 70
    endloop
  endfacet
  facet normal -0.929034 -0 -0.369995
    outer loop
      vertex -6.76742 -0.799999 0
      vertex -6.76742 -2.80316 0
      vertex -25 -0.799999 45.7808
    endloop
  endfacet
  facet normal -0.929034 0 -0.369995
    outer loop
      vertex -25 0.799999 45.7808
      vertex -6.76742 2.80316 0
      vertex -6.76742 0.799999 0
    endloop
  endfacet
  facet normal -0.929034 -2.84547e-07 -0.369995
    outer loop
      vertex -6.76742 2.80316 0
      vertex -25 0.799999 45.7808
      vertex -34.6455 14.3506 70
    endloop
  endfacet
  facet normal -0.929034 0 -0.369995
    outer loop
      vertex -25 -0.799999 45.7808
      vertex -34.6455 14.3506 70
      vertex -25 0.799999 45.7808
    endloop
  endfacet
  facet normal -0.929034 0 -0.369995
    outer loop
      vertex -25 -0.799999 45.7808
      vertex -34.6455 -14.3506 70
      vertex -34.6455 14.3506 70
    endloop
  endfacet
  facet normal -0.929034 2.84547e-07 -0.369995
    outer loop
      vertex -34.6455 -14.3506 70
      vertex -25 -0.799999 45.7808
      vertex -6.76742 -2.80316 0
    endloop
  endfacet
  facet normal 0.707107 0.707107 0
    outer loop
      vertex -2.49701 -6.02831 0
      vertex -6.02831 -2.49701 -5
      vertex -6.02831 -2.49701 0
    endloop
  endfacet
  facet normal 0.707107 0.707107 0
    outer loop
      vertex -6.02831 -2.49701 -5
      vertex -2.49701 -6.02831 0
      vertex -2.49701 -6.02831 -5
    endloop
  endfacet
  facet normal 0 -1 0
    outer loop
      vertex -2.49701 6.02831 -5
      vertex 2.49701 6.02831 0
      vertex -2.49701 6.02831 0
    endloop
  endfacet
  facet normal 0 -1 -0
    outer loop
      vertex 2.49701 6.02831 0
      vertex -2.49701 6.02831 -5
      vertex 2.49701 6.02831 -5
    endloop
  endfacet
  facet normal -0.707107 -0.707107 0
    outer loop
      vertex 6.02831 2.49701 -5
      vertex 2.49701 6.02831 0
      vertex 2.49701 6.02831 -5
    endloop
  endfacet
  facet normal -0.707107 -0.707107 0
    outer loop
      vertex 2.49701 6.02831 0
      vertex 6.02831 2.49701 -5
      vertex 6.02831 2.49701 0
    endloop
  endfacet
  facet normal 0 1 -0
    outer loop
      vertex 2.49701 -6.02831 -5
      vertex -2.49701 -6.02831 0
      vertex 2.49701 -6.02831 0
    endloop
  endfacet
  facet normal 0 1 0
    outer loop
      vertex -2.49701 -6.02831 0
      vertex 2.49701 -6.02831 -5
      vertex -2.49701 -6.02831 -5
    endloop
  endfacet
  facet normal 0.707107 -0.707107 0
    outer loop
      vertex -6.02831 2.49701 0
      vertex -2.49701 6.02831 -5
      vertex -2.49701 6.02831 0
    endloop
  endfacet
  facet normal 0.707107 -0.707107 0
    outer loop
      vertex -2.49701 6.02831 -5
      vertex -6.02831 2.49701 0
      vertex -6.02831 2.49701 -5
    endloop
  endfacet
  facet normal 1 -0 0
    outer loop
      vertex -6.02831 -2.49701 0
      vertex -6.02831 2.49701 -5
      vertex -6.02831 2.49701 0
    endloop
  endfacet
  facet normal 1 0 0
    outer loop
      vertex -6.02831 2.49701 -5
      vertex -6.02831 -2.49701 0
      vertex -6.02831 -2.49701 -5
    endloop
  endfacet
  facet normal -1 0 0
    outer loop
      vertex 6.02831 -2.49701 -5
      vertex 6.02831 2.49701 0
      vertex 6.02831 2.49701 -5
    endloop
  endfacet
  facet normal -1 -0 0
    outer loop
      vertex 6.02831 2.49701 0
      vertex 6.02831 -2.49701 -5
      vertex 6.02831 -2.49701 0
    endloop
  endfacet
  facet normal -0.707107 0.707107 0
    outer loop
      vertex 2.49701 -6.02831 -5
      vertex 6.02831 -2.49701 0
      vertex 6.02831 -2.49701 -5
    endloop
  endfacet
  facet normal -0.707107 0.707107 0
    outer loop
      vertex 6.02831 -2.49701 0
      vertex 2.49701 -6.02831 -5
      vertex 2.49701 -6.02831 0
    endloop
  endfacet
  facet normal 0 0.929034 0.369995
    outer loop
      vertex 2.49701 -6.02831 0
      vertex -14.0445 -33.9064 70
      vertex 14.0445 -33.9064 70
    endloop
  endfacet
  facet normal 0 0.929034 0.369995
    outer loop
      vertex -14.0445 -33.9064 70
      vertex 2.49701 -6.02831 0
      vertex -2.49701 -6.02831 0
    endloop
  endfacet
  facet normal 0.656926 -0.656926 0.369996
    outer loop
      vertex -33.9064 14.0445 70
      vertex -2.49701 6.02831 0
      vertex -14.0445 33.9064 70
    endloop
  endfacet
  facet normal 0.656926 -0.656926 0.369996
    outer loop
      vertex -2.49701 6.02831 0
      vertex -33.9064 14.0445 70
      vertex -6.02831 2.49701 0
    endloop
  endfacet
  facet normal -0.656926 -0.656926 0.369996
    outer loop
      vertex 2.49701 6.02831 0
      vertex 33.9064 14.0445 70
      vertex 14.0445 33.9064 70
    endloop
  endfacet
  facet normal -0.656926 -0.656926 0.369996
    outer loop
      vertex 33.9064 14.0445 70
      vertex 2.49701 6.02831 0
      vertex 6.02831 2.49701 0
    endloop
  endfacet
  facet normal -0.929034 0 0.369995
    outer loop
      vertex 6.02831 -2.49701 0
      vertex 33.9064 14.0445 70
      vertex 6.02831 2.49701 0
    endloop
  endfacet
  facet normal -0.929034 0 0.369995
    outer loop
      vertex 33.9064 14.0445 70
      vertex 6.02831 -2.49701 0
      vertex 33.9064 -14.0445 70
    endloop
  endfacet
  facet normal 0 -0.929034 0.369995
    outer loop
      vertex -2.49701 6.02831 0
      vertex 14.0445 33.9064 70
      vertex -14.0445 33.9064 70
    endloop
  endfacet
  facet normal 0 -0.929034 0.369995
    outer loop
      vertex 14.0445 33.9064 70
      vertex -2.49701 6.02831 0
      vertex 2.49701 6.02831 0
    endloop
  endfacet
  facet normal 0.656926 0.656926 0.369996
    outer loop
      vertex -33.9064 -14.0445 70
      vertex -2.49701 -6.02831 0
      vertex -6.02831 -2.49701 0
    endloop
  endfacet
  facet normal 0.656926 0.656926 0.369996
    outer loop
      vertex -2.49701 -6.02831 0
      vertex -33.9064 -14.0445 70
      vertex -14.0445 -33.9064 70
    endloop
  endfacet
  facet normal 0.929034 0 0.369995
    outer loop
      vertex -33.9064 14.0445 70
      vertex -6.02831 -2.49701 0
      vertex -6.02831 2.49701 0
    endloop
  endfacet
  facet normal 0.929034 0 0.369995
    outer loop
      vertex -6.02831 -2.49701 0
      vertex -33.9064 14.0445 70
      vertex -33.9064 -14.0445 70
    endloop
  endfacet
  facet normal -0.656926 0.656926 0.369996
    outer loop
      vertex 2.49701 -6.02831 0
      vertex 33.9064 -14.0445 70
      vertex 6.02831 -2.49701 0
    endloop
  endfacet
  facet normal -0.656926 0.656926 0.369996
    outer loop
      vertex 33.9064 -14.0445 70
      vertex 2.49701 -6.02831 0
      vertex 14.0445 -33.9064 70
    endloop
  endfacet
endsolid OpenSCAD_Model
