solid OpenSCAD_Model
  facet normal -0.707107 0 0.707107
    outer loop
      vertex 15 -9 1.2
      vertex 33.8 1 20
      vertex 15 1 1.2
    endloop
  endfacet
  facet normal -0.707107 0 0.707107
    outer loop
      vertex 33.8 1 20
      vertex 15 -9 1.2
      vertex 33.8 -9 20
    endloop
  endfacet
  facet normal 0 1 -0
    outer loop
      vertex 15 -9 1.2
      vertex 1 -9 20
      vertex 33.8 -9 20
    endloop
  endfacet
  facet normal 0 1 0
    outer loop
      vertex 1 -9 1.1
      vertex 15 -9 1.2
      vertex 15 -9 1.1
    endloop
  endfacet
  facet normal 0 1 0
    outer loop
      vertex 15 -9 1.2
      vertex 1 -9 1.1
      vertex 1 -9 20
    endloop
  endfacet
  facet normal -0 -1 0
    outer loop
      vertex 33.8 1 20
      vertex 15 1 20
      vertex 15 1 1.2
    endloop
  endfacet
  facet normal 1 -0 0
    outer loop
      vertex 1 -9 20
      vertex 1 5 1.1
      vertex 1 5 20
    endloop
  endfacet
  facet normal 1 0 0
    outer loop
      vertex 1 5 1.1
      vertex 1 -9 20
      vertex 1 -9 1.1
    endloop
  endfacet
  facet normal 0.707107 0 -0.707107
    outer loop
      vertex 35 -10.2 20
      vertex 22.5 2.19999 7.5
      vertex 35 2.19999 20
    endloop
  endfacet
  facet normal 0.707107 0 -0.707107
    outer loop
      vertex 22.5 2.19999 7.5
      vertex 35 -10.2 20
      vertex 22.5 -10.2 7.5
    endloop
  endfacet
  facet normal 0 -1 0
    outer loop
      vertex 22.5 -10.2 20
      vertex 22.5 -10.2 7.5
      vertex 35 -10.2 20
    endloop
  endfacet
  facet normal 0 1 0
    outer loop
      vertex 35 2.19999 20
      vertex 22.5 2.19999 7.5
      vertex 22.5 2.19999 20
    endloop
  endfacet
  facet normal -0 0 1
    outer loop
      vertex -32.5 5 20
      vertex -7.5 -5 20
      vertex -7.5 5 20
    endloop
  endfacet
  facet normal 0 0 1
    outer loop
      vertex -7.5 -5 20
      vertex -32.5 5 20
      vertex -32.5 -5 20
    endloop
  endfacet
  facet normal 0 0 1
    outer loop
      vertex 22.5 25 20
      vertex 15 5 20
      vertex 22.5 2.19999 20
    endloop
  endfacet
  facet normal 0 0 1
    outer loop
      vertex 22.5 25 20
      vertex 1 5 20
      vertex 15 5 20
    endloop
  endfacet
  facet normal 0 0 1
    outer loop
      vertex -7.5 5 20
      vertex 1 5 20
      vertex -7.5 25 20
    endloop
  endfacet
  facet normal -0 0 1
    outer loop
      vertex -7.5 25 20
      vertex 1 5 20
      vertex 22.5 25 20
    endloop
  endfacet
  facet normal 0 0 1
    outer loop
      vertex 35 2.19999 20
      vertex 33.8 1 20
      vertex 35 -10.2 20
    endloop
  endfacet
  facet normal -0 0 1
    outer loop
      vertex 22.5 2.19999 20
      vertex 33.8 1 20
      vertex 35 2.19999 20
    endloop
  endfacet
  facet normal 0 0 1
    outer loop
      vertex 22.5 2.19999 20
      vertex 15 1 20
      vertex 33.8 1 20
    endloop
  endfacet
  facet normal 0 0 1
    outer loop
      vertex 15 1 20
      vertex 22.5 2.19999 20
      vertex 15 5 20
    endloop
  endfacet
  facet normal -0 0 1
    outer loop
      vertex 33.8 -9 20
      vertex 35 -10.2 20
      vertex 33.8 1 20
    endloop
  endfacet
  facet normal 0 0 1
    outer loop
      vertex 33.8 -9 20
      vertex 22.5 -10.2 20
      vertex 35 -10.2 20
    endloop
  endfacet
  facet normal -0 0 1
    outer loop
      vertex 1 -9 20
      vertex 22.5 -10.2 20
      vertex 33.8 -9 20
    endloop
  endfacet
  facet normal 0 0 1
    outer loop
      vertex 1 -9 20
      vertex 22.5 -25 20
      vertex 22.5 -10.2 20
    endloop
  endfacet
  facet normal 0 0 1
    outer loop
      vertex -7.5 -5 20
      vertex 1 5 20
      vertex -7.5 5 20
    endloop
  endfacet
  facet normal 0 0 1
    outer loop
      vertex 1 5 20
      vertex -7.5 -5 20
      vertex 1 -9 20
    endloop
  endfacet
  facet normal 0 0 1
    outer loop
      vertex -7.5 -25 20
      vertex 1 -9 20
      vertex -7.5 -5 20
    endloop
  endfacet
  facet normal 0 0 1
    outer loop
      vertex 1 -9 20
      vertex -7.5 -25 20
      vertex 22.5 -25 20
    endloop
  endfacet
  facet normal 1 0 0
    outer loop
      vertex 22.5 -10.2 20
      vertex 22.5 -25 20
      vertex 22.5 -10.2 7.5
    endloop
  endfacet
  facet normal 1 0 0
    outer loop
      vertex 22.5 2.19999 7.5
      vertex 22.5 25 20
      vertex 22.5 2.19999 20
    endloop
  endfacet
  facet normal 1 0 0
    outer loop
      vertex 22.5 25 20
      vertex 22.5 2.19999 7.5
      vertex 22.5 25 0
    endloop
  endfacet
  facet normal 1 0 0
    outer loop
      vertex 22.5 -25 0
      vertex 22.5 2.19999 7.5
      vertex 22.5 -10.2 7.5
    endloop
  endfacet
  facet normal 1 0 0
    outer loop
      vertex 22.5 2.19999 7.5
      vertex 22.5 -25 0
      vertex 22.5 25 0
    endloop
  endfacet
  facet normal 1 0 0
    outer loop
      vertex 22.5 -25 0
      vertex 22.5 -10.2 7.5
      vertex 22.5 -25 20
    endloop
  endfacet
  facet normal 0 0 -1
    outer loop
      vertex -32.5 -5 0
      vertex -7.5 5 0
      vertex -7.5 -5 0
    endloop
  endfacet
  facet normal -0 0 -1
    outer loop
      vertex -7.5 5 0
      vertex -32.5 -5 0
      vertex -32.5 5 0
    endloop
  endfacet
  facet normal 0 0 -1
    outer loop
      vertex -7.5 -5 0
      vertex 22.5 -25 0
      vertex -7.5 -25 0
    endloop
  endfacet
  facet normal 0 0 -1
    outer loop
      vertex 22.5 -25 0
      vertex -7.5 -5 0
      vertex 22.5 25 0
    endloop
  endfacet
  facet normal 0 0 -1
    outer loop
      vertex -7.5 5 0
      vertex 22.5 25 0
      vertex -7.5 -5 0
    endloop
  endfacet
  facet normal -0 0 -1
    outer loop
      vertex 22.5 25 0
      vertex -7.5 5 0
      vertex -7.5 25 0
    endloop
  endfacet
  facet normal -1 0 0
    outer loop
      vertex -32.5 -5 0
      vertex -32.5 5 20
      vertex -32.5 5 0
    endloop
  endfacet
  facet normal -1 -0 0
    outer loop
      vertex -32.5 5 20
      vertex -32.5 -5 0
      vertex -32.5 -5 20
    endloop
  endfacet
  facet normal 0 1 -0
    outer loop
      vertex 22.5 25 0
      vertex -7.5 25 20
      vertex 22.5 25 20
    endloop
  endfacet
  facet normal 0 1 0
    outer loop
      vertex -7.5 25 20
      vertex 22.5 25 0
      vertex -7.5 25 0
    endloop
  endfacet
  facet normal 0 -1 0
    outer loop
      vertex -7.5 -25 0
      vertex 22.5 -25 20
      vertex -7.5 -25 20
    endloop
  endfacet
  facet normal 0 -1 -0
    outer loop
      vertex 22.5 -25 20
      vertex -7.5 -25 0
      vertex 22.5 -25 0
    endloop
  endfacet
  facet normal -1 0 0
    outer loop
      vertex 15 5 1.1
      vertex 15 1 1.2
      vertex 15 5 20
    endloop
  endfacet
  facet normal -1 0 0
    outer loop
      vertex 15 -9 1.1
      vertex 15 1 1.2
      vertex 15 5 1.1
    endloop
  endfacet
  facet normal -1 -0 0
    outer loop
      vertex 15 1 1.2
      vertex 15 -9 1.1
      vertex 15 -9 1.2
    endloop
  endfacet
  facet normal -1 -0 0
    outer loop
      vertex 15 5 20
      vertex 15 1 1.2
      vertex 15 1 20
    endloop
  endfacet
  facet normal -0 0 1
    outer loop
      vertex 1 5 1.1
      vertex 15 -9 1.1
      vertex 15 5 1.1
    endloop
  endfacet
  facet normal 0 0 1
    outer loop
      vertex 15 -9 1.1
      vertex 1 5 1.1
      vertex 1 -9 1.1
    endloop
  endfacet
  facet normal 0 -1 0
    outer loop
      vertex 1 5 1.1
      vertex 15 5 20
      vertex 1 5 20
    endloop
  endfacet
  facet normal 0 -1 -0
    outer loop
      vertex 15 5 20
      vertex 1 5 1.1
      vertex 15 5 1.1
    endloop
  endfacet
  facet normal -1 0 0
    outer loop
      vertex -7.5 -25 0
      vertex -7.5 -5 20
      vertex -7.5 -5 0
    endloop
  endfacet
  facet normal -1 -0 0
    outer loop
      vertex -7.5 -5 20
      vertex -7.5 -25 0
      vertex -7.5 -25 20
    endloop
  endfacet
  facet normal 0 -1 0
    outer loop
      vertex -32.5 -5 0
      vertex -7.5 -5 20
      vertex -32.5 -5 20
    endloop
  endfacet
  facet normal 0 -1 -0
    outer loop
      vertex -7.5 -5 20
      vertex -32.5 -5 0
      vertex -7.5 -5 0
    endloop
  endfacet
  facet normal -1 0 0
    outer loop
      vertex -7.5 5 0
      vertex -7.5 25 20
      vertex -7.5 25 0
    endloop
  endfacet
  facet normal -1 -0 0
    outer loop
      vertex -7.5 25 20
      vertex -7.5 5 0
      vertex -7.5 5 20
    endloop
  endfacet
  facet normal 0 1 -0
    outer loop
      vertex -7.5 5 0
      vertex -32.5 5 20
      vertex -7.5 5 20
    endloop
  endfacet
  facet normal 0 1 0
    outer loop
      vertex -32.5 5 20
      vertex -7.5 5 0
      vertex -32.5 5 0
    endloop
  endfacet
endsolid OpenSCAD_Model
