solid OpenSCAD_Model
  facet normal 0.994522 -0.104528 0
    outer loop
      vertex -21 0 9
      vertex -20.5411 4.36615 0
      vertex -20.5411 4.36615 9
    endloop
  endfacet
  facet normal 0.994522 -0.104528 0
    outer loop
      vertex -20.5411 4.36615 0
      vertex -21 0 9
      vertex -21 0 0
    endloop
  endfacet
  facet normal 0 0 -1
    outer loop
      vertex 0 -18.9 9
      vertex 8 -21.3237 9
      vertex 8 -21.4 9
    endloop
  endfacet
  facet normal 0 0 -1
    outer loop
      vertex 8 -21.3237 9
      vertex 0 -18.9 9
      vertex 7.92428 -18.9 9
    endloop
  endfacet
  facet normal 0 0 -1
    outer loop
      vertex -1.14301 -21.4 9
      vertex 0 -18.9 9
      vertex 8 -21.4 9
    endloop
  endfacet
  facet normal 0 0 -1
    outer loop
      vertex -2 -20.885 9
      vertex 0 -18.9 9
      vertex -1.14301 -21.4 9
    endloop
  endfacet
  facet normal 0 -0 -1
    outer loop
      vertex -1.98604 -18.8959 9
      vertex 0 -18.9 9
      vertex -2 -20.885 9
    endloop
  endfacet
  facet normal 0 0 -1
    outer loop
      vertex -2 -20.885 9
      vertex -1.14301 -21.4 9
      vertex -2 -21.325 9
    endloop
  endfacet
  facet normal 0 0 -1
    outer loop
      vertex 0 -18.9 9
      vertex -1.98604 -18.8959 9
      vertex 0 -18.8959 9
    endloop
  endfacet
  facet normal 0 0 -1
    outer loop
      vertex -2.1951 -20.885 9
      vertex -1.98604 -18.8959 9
      vertex -2 -20.885 9
    endloop
  endfacet
  facet normal 0 0 -1
    outer loop
      vertex -2.1951 -20.885 9
      vertex -5.87132 -18.0701 9
      vertex -1.98604 -18.8959 9
    endloop
  endfacet
  facet normal 0 0 -1
    outer loop
      vertex -6.48936 -19.9722 9
      vertex -5.87132 -18.0701 9
      vertex -2.1951 -20.885 9
    endloop
  endfacet
  facet normal 0 0 -1
    outer loop
      vertex -6.48936 -19.9722 9
      vertex -9.5 -16.4545 9
      vertex -5.87132 -18.0701 9
    endloop
  endfacet
  facet normal 0 0 -1
    outer loop
      vertex -10.5 -18.1865 9
      vertex -9.5 -16.4545 9
      vertex -6.48936 -19.9722 9
    endloop
  endfacet
  facet normal 0 0 -1
    outer loop
      vertex -10.5 -18.1865 9
      vertex -12.7135 -14.1198 9
      vertex -9.5 -16.4545 9
    endloop
  endfacet
  facet normal 0 0 -1
    outer loop
      vertex -14.0517 -15.606 9
      vertex -12.7135 -14.1198 9
      vertex -10.5 -18.1865 9
    endloop
  endfacet
  facet normal 0 0 -1
    outer loop
      vertex -14.0517 -15.606 9
      vertex -15.3713 -11.1679 9
      vertex -12.7135 -14.1198 9
    endloop
  endfacet
  facet normal 0 0 -1
    outer loop
      vertex -16.9894 -12.3435 9
      vertex -15.3713 -11.1679 9
      vertex -14.0517 -15.606 9
    endloop
  endfacet
  facet normal 0 0 -1
    outer loop
      vertex -16.9894 -12.3435 9
      vertex -17.3574 -7.728 9
      vertex -15.3713 -11.1679 9
    endloop
  endfacet
  facet normal 0 0 -1
    outer loop
      vertex -19.1845 -8.54147 9
      vertex -17.3574 -7.728 9
      vertex -16.9894 -12.3435 9
    endloop
  endfacet
  facet normal 0 0 -1
    outer loop
      vertex -20.5411 -4.36615 9
      vertex -18.5848 -3.95032 9
      vertex -19.1845 -8.54147 9
    endloop
  endfacet
  facet normal -0 0 -1
    outer loop
      vertex -17.3574 -7.728 9
      vertex -19.1845 -8.54147 9
      vertex -18.5848 -3.95032 9
    endloop
  endfacet
  facet normal 0 0 -1
    outer loop
      vertex 7.92428 -18.9 9
      vertex 22.5 -18.7669 9
      vertex 8 -21.3237 9
    endloop
  endfacet
  facet normal -0 0 -1
    outer loop
      vertex 22.5 -18.7669 9
      vertex 7.92428 -18.9 9
      vertex 22.5 -16.3299 9
    endloop
  endfacet
  facet normal 0 0 -1
    outer loop
      vertex 0 18.8959 9
      vertex -1.98604 18.8959 9
      vertex 0 19 9
    endloop
  endfacet
  facet normal 0 0 -1
    outer loop
      vertex 0 19 9
      vertex 8 19.5 9
      vertex 8 19 9
    endloop
  endfacet
  facet normal 0 0 -1
    outer loop
      vertex -7.5499 19.5 9
      vertex 0 19 9
      vertex -1.98604 18.8959 9
    endloop
  endfacet
  facet normal 0 0 -1
    outer loop
      vertex 0 19 9
      vertex -7.5499 19.5 9
      vertex 8 19.5 9
    endloop
  endfacet
  facet normal 0 0 -1
    outer loop
      vertex -5.87132 18.0701 9
      vertex -7.5499 19.5 9
      vertex -1.98604 18.8959 9
    endloop
  endfacet
  facet normal 0 0 -1
    outer loop
      vertex -9.5 16.4545 9
      vertex -7.5499 19.5 9
      vertex -5.87132 18.0701 9
    endloop
  endfacet
  facet normal 0 0 -1
    outer loop
      vertex -9.5 16.4545 9
      vertex -10.5 18.1865 9
      vertex -7.5499 19.5 9
    endloop
  endfacet
  facet normal 0 0 -1
    outer loop
      vertex -12.7135 14.1198 9
      vertex -10.5 18.1865 9
      vertex -9.5 16.4545 9
    endloop
  endfacet
  facet normal 0 0 -1
    outer loop
      vertex -12.7135 14.1198 9
      vertex -14.0517 15.606 9
      vertex -10.5 18.1865 9
    endloop
  endfacet
  facet normal 0 0 -1
    outer loop
      vertex -15.3713 11.1679 9
      vertex -14.0517 15.606 9
      vertex -12.7135 14.1198 9
    endloop
  endfacet
  facet normal 0 0 -1
    outer loop
      vertex -15.3713 11.1679 9
      vertex -16.9894 12.3435 9
      vertex -14.0517 15.606 9
    endloop
  endfacet
  facet normal 0 0 -1
    outer loop
      vertex -17.3574 7.728 9
      vertex -16.9894 12.3435 9
      vertex -15.3713 11.1679 9
    endloop
  endfacet
  facet normal 0 0 -1
    outer loop
      vertex -19.1845 8.54147 9
      vertex -17.3574 7.728 9
      vertex -18.5848 3.95032 9
    endloop
  endfacet
  facet normal 0 0 -1
    outer loop
      vertex -17.3574 7.728 9
      vertex -19.1845 8.54147 9
      vertex -16.9894 12.3435 9
    endloop
  endfacet
  facet normal 0 0 -1
    outer loop
      vertex -20.5411 4.36615 9
      vertex -18.5848 3.95032 9
      vertex -19 0 9
    endloop
  endfacet
  facet normal -0 0 -1
    outer loop
      vertex -18.5848 -3.95032 9
      vertex -20.5411 -4.36615 9
      vertex -19 0 9
    endloop
  endfacet
  facet normal 0 0 -1
    outer loop
      vertex -21 0 9
      vertex -19 0 9
      vertex -20.5411 -4.36615 9
    endloop
  endfacet
  facet normal 0 0 -1
    outer loop
      vertex -18.5848 3.95032 9
      vertex -20.5411 4.36615 9
      vertex -19.1845 8.54147 9
    endloop
  endfacet
  facet normal 0 0 -1
    outer loop
      vertex -19 0 9
      vertex -21 0 9
      vertex -20.5411 4.36615 9
    endloop
  endfacet
  facet normal 0 0 1
    outer loop
      vertex 8 19.5 0
      vertex 0 19 0
      vertex 8 19 0
    endloop
  endfacet
  facet normal 0 0 1
    outer loop
      vertex 0 19 0
      vertex -1.98604 18.8959 0
      vertex 0 18.8959 0
    endloop
  endfacet
  facet normal -0 0 1
    outer loop
      vertex -7.5499 19.5 0
      vertex 0 19 0
      vertex 8 19.5 0
    endloop
  endfacet
  facet normal 0 0 1
    outer loop
      vertex 0 19 0
      vertex -7.5499 19.5 0
      vertex -1.98604 18.8959 0
    endloop
  endfacet
  facet normal 0 0 1
    outer loop
      vertex -7.5499 19.5 0
      vertex -5.87132 18.0701 0
      vertex -1.98604 18.8959 0
    endloop
  endfacet
  facet normal 0 0 1
    outer loop
      vertex -7.5499 19.5 0
      vertex -9.5 16.4545 0
      vertex -5.87132 18.0701 0
    endloop
  endfacet
  facet normal -0 0 1
    outer loop
      vertex -10.5 18.1865 0
      vertex -9.5 16.4545 0
      vertex -7.5499 19.5 0
    endloop
  endfacet
  facet normal 0 0 1
    outer loop
      vertex -10.5 18.1865 0
      vertex -12.7135 14.1198 0
      vertex -9.5 16.4545 0
    endloop
  endfacet
  facet normal -0 0 1
    outer loop
      vertex -14.0517 15.606 0
      vertex -12.7135 14.1198 0
      vertex -10.5 18.1865 0
    endloop
  endfacet
  facet normal 0 0 1
    outer loop
      vertex -14.0517 15.606 0
      vertex -15.3713 11.1679 0
      vertex -12.7135 14.1198 0
    endloop
  endfacet
  facet normal -0 0 1
    outer loop
      vertex -16.9894 12.3435 0
      vertex -15.3713 11.1679 0
      vertex -14.0517 15.606 0
    endloop
  endfacet
  facet normal 0 0 1
    outer loop
      vertex -16.9894 12.3435 0
      vertex -17.3574 7.728 0
      vertex -15.3713 11.1679 0
    endloop
  endfacet
  facet normal -0 0 1
    outer loop
      vertex -19.1845 8.54147 0
      vertex -17.3574 7.728 0
      vertex -16.9894 12.3435 0
    endloop
  endfacet
  facet normal -0 0 1
    outer loop
      vertex -20.5411 4.36615 0
      vertex -18.5848 3.95032 0
      vertex -19.1845 8.54147 0
    endloop
  endfacet
  facet normal 0 0 1
    outer loop
      vertex -17.3574 7.728 0
      vertex -19.1845 8.54147 0
      vertex -18.5848 3.95032 0
    endloop
  endfacet
  facet normal 0 0 1
    outer loop
      vertex 0 -18.8959 0
      vertex -1.98604 -18.8959 0
      vertex 0 -18.9 0
    endloop
  endfacet
  facet normal 0 0 1
    outer loop
      vertex 7.92428 -18.9 0
      vertex 22.5 -18.7669 0
      vertex 22.5 -16.3299 0
    endloop
  endfacet
  facet normal 0 0 1
    outer loop
      vertex 22.5 -18.7669 0
      vertex 7.92428 -18.9 0
      vertex 8 -21.3237 0
    endloop
  endfacet
  facet normal -0 0 1
    outer loop
      vertex 0 -18.9 0
      vertex 8 -21.3237 0
      vertex 7.92428 -18.9 0
    endloop
  endfacet
  facet normal 0 0 1
    outer loop
      vertex 8 -21.3237 0
      vertex 0 -18.9 0
      vertex 8 -23.5 0
    endloop
  endfacet
  facet normal 0 0 1
    outer loop
      vertex -2 -20.885 0
      vertex 0 -18.9 0
      vertex -1.98604 -18.8959 0
    endloop
  endfacet
  facet normal 0 0 1
    outer loop
      vertex -2 -21.325 0
      vertex 0 -18.9 0
      vertex -2 -20.885 0
    endloop
  endfacet
  facet normal 0 0 1
    outer loop
      vertex -2 -21.8269 0
      vertex 0 -18.9 0
      vertex -2 -21.325 0
    endloop
  endfacet
  facet normal 0 0 1
    outer loop
      vertex -2 -23.5 0
      vertex 0 -18.9 0
      vertex -2 -21.8269 0
    endloop
  endfacet
  facet normal 0 0 1
    outer loop
      vertex 0 -18.9 0
      vertex -2 -23.5 0
      vertex 8 -23.5 0
    endloop
  endfacet
  facet normal -0 0 1
    outer loop
      vertex -22.5 -20.0334 0
      vertex -2 -21.325 0
      vertex -22.5 -19.5315 0
    endloop
  endfacet
  facet normal 0 0 1
    outer loop
      vertex -2 -21.325 0
      vertex -22.5 -20.0334 0
      vertex -2 -21.8269 0
    endloop
  endfacet
  facet normal 0 0 1
    outer loop
      vertex -1.98604 -18.8959 0
      vertex -2.1951 -20.885 0
      vertex -2 -20.885 0
    endloop
  endfacet
  facet normal 0 0 1
    outer loop
      vertex -5.87132 -18.0701 0
      vertex -2.1951 -20.885 0
      vertex -1.98604 -18.8959 0
    endloop
  endfacet
  facet normal 0 0 1
    outer loop
      vertex -5.87132 -18.0701 0
      vertex -6.48936 -19.9722 0
      vertex -2.1951 -20.885 0
    endloop
  endfacet
  facet normal 0 0 1
    outer loop
      vertex -9.5 -16.4545 0
      vertex -6.48936 -19.9722 0
      vertex -5.87132 -18.0701 0
    endloop
  endfacet
  facet normal 0 0 1
    outer loop
      vertex -9.5 -16.4545 0
      vertex -10.5 -18.1865 0
      vertex -6.48936 -19.9722 0
    endloop
  endfacet
  facet normal 0 0 1
    outer loop
      vertex -12.7135 -14.1198 0
      vertex -10.5 -18.1865 0
      vertex -9.5 -16.4545 0
    endloop
  endfacet
  facet normal 0 0 1
    outer loop
      vertex -12.7135 -14.1198 0
      vertex -14.0517 -15.606 0
      vertex -10.5 -18.1865 0
    endloop
  endfacet
  facet normal 0 0 1
    outer loop
      vertex -15.3713 -11.1679 0
      vertex -14.0517 -15.606 0
      vertex -12.7135 -14.1198 0
    endloop
  endfacet
  facet normal 0 0 1
    outer loop
      vertex -15.3713 -11.1679 0
      vertex -16.9894 -12.3435 0
      vertex -14.0517 -15.606 0
    endloop
  endfacet
  facet normal 0 0 1
    outer loop
      vertex -17.3574 -7.728 0
      vertex -16.9894 -12.3435 0
      vertex -15.3713 -11.1679 0
    endloop
  endfacet
  facet normal 0 0 1
    outer loop
      vertex -19.1845 -8.54147 0
      vertex -17.3574 -7.728 0
      vertex -18.5848 -3.95032 0
    endloop
  endfacet
  facet normal 0 0 1
    outer loop
      vertex -17.3574 -7.728 0
      vertex -19.1845 -8.54147 0
      vertex -16.9894 -12.3435 0
    endloop
  endfacet
  facet normal 0 0 1
    outer loop
      vertex -20.5411 -4.36615 0
      vertex -18.5848 -3.95032 0
      vertex -19 0 0
    endloop
  endfacet
  facet normal 0 0 1
    outer loop
      vertex -18.5848 3.95032 0
      vertex -20.5411 4.36615 0
      vertex -19 0 0
    endloop
  endfacet
  facet normal 0 0 1
    outer loop
      vertex -21 0 0
      vertex -19 0 0
      vertex -20.5411 4.36615 0
    endloop
  endfacet
  facet normal 0 0 1
    outer loop
      vertex -18.5848 -3.95032 0
      vertex -20.5411 -4.36615 0
      vertex -19.1845 -8.54147 0
    endloop
  endfacet
  facet normal 0 0 1
    outer loop
      vertex -19 0 0
      vertex -21 0 0
      vertex -20.5411 -4.36615 0
    endloop
  endfacet
  facet normal 0.587791 -0.809013 0
    outer loop
      vertex -14.0517 15.606 0
      vertex -10.5 18.1865 9
      vertex -14.0517 15.606 9
    endloop
  endfacet
  facet normal 0.587791 -0.809013 0
    outer loop
      vertex -10.5 18.1865 9
      vertex -14.0517 15.606 0
      vertex -10.5 18.1865 0
    endloop
  endfacet
  facet normal 0 1 -0
    outer loop
      vertex -2 -20.885 0
      vertex -2.1951 -20.885 9
      vertex -2 -20.885 9
    endloop
  endfacet
  facet normal 0 1 0
    outer loop
      vertex -2.1951 -20.885 9
      vertex -2 -20.885 0
      vertex -2.1951 -20.885 0
    endloop
  endfacet
  facet normal 0.406746 0.913541 -0
    outer loop
      vertex -6.48936 -19.9722 0
      vertex -10.5 -18.1865 9
      vertex -6.48936 -19.9722 9
    endloop
  endfacet
  facet normal 0.406746 0.913541 0
    outer loop
      vertex -10.5 -18.1865 9
      vertex -6.48936 -19.9722 0
      vertex -10.5 -18.1865 0
    endloop
  endfacet
  facet normal 0.951059 -0.309008 0
    outer loop
      vertex -20.5411 4.36615 9
      vertex -19.1845 8.54147 0
      vertex -19.1845 8.54147 9
    endloop
  endfacet
  facet normal 0.951059 -0.309008 0
    outer loop
      vertex -19.1845 8.54147 0
      vertex -20.5411 4.36615 9
      vertex -20.5411 4.36615 0
    endloop
  endfacet
  facet normal 0.207918 0.978146 -0
    outer loop
      vertex -2.1951 -20.885 0
      vertex -6.48936 -19.9722 9
      vertex -2.1951 -20.885 9
    endloop
  endfacet
  facet normal 0.207918 0.978146 0
    outer loop
      vertex -6.48936 -19.9722 9
      vertex -2.1951 -20.885 0
      vertex -6.48936 -19.9722 0
    endloop
  endfacet
  facet normal 0.74313 -0.669147 0
    outer loop
      vertex -16.9894 12.3435 9
      vertex -14.0517 15.606 0
      vertex -14.0517 15.606 9
    endloop
  endfacet
  facet normal 0.74313 -0.669147 0
    outer loop
      vertex -14.0517 15.606 0
      vertex -16.9894 12.3435 9
      vertex -16.9894 12.3435 0
    endloop
  endfacet
  facet normal 0.406745 -0.913542 0
    outer loop
      vertex -10.5 18.1865 0
      vertex -7.5499 19.5 9
      vertex -10.5 18.1865 9
    endloop
  endfacet
  facet normal 0.406745 -0.913542 0
    outer loop
      vertex -7.5499 19.5 9
      vertex -10.5 18.1865 0
      vertex -7.5499 19.5 0
    endloop
  endfacet
  facet normal 0.951059 0.309008 0
    outer loop
      vertex -19.1845 -8.54147 9
      vertex -20.5411 -4.36615 0
      vertex -20.5411 -4.36615 9
    endloop
  endfacet
  facet normal 0.951059 0.309008 0
    outer loop
      vertex -20.5411 -4.36615 0
      vertex -19.1845 -8.54147 9
      vertex -19.1845 -8.54147 0
    endloop
  endfacet
  facet normal 0.866026 0.499999 0
    outer loop
      vertex -16.9894 -12.3435 9
      vertex -19.1845 -8.54147 0
      vertex -19.1845 -8.54147 9
    endloop
  endfacet
  facet normal 0.866026 0.499999 0
    outer loop
      vertex -19.1845 -8.54147 0
      vertex -16.9894 -12.3435 9
      vertex -16.9894 -12.3435 0
    endloop
  endfacet
  facet normal 0.74313 0.669147 0
    outer loop
      vertex -14.0517 -15.606 9
      vertex -16.9894 -12.3435 0
      vertex -16.9894 -12.3435 9
    endloop
  endfacet
  facet normal 0.74313 0.669147 0
    outer loop
      vertex -16.9894 -12.3435 0
      vertex -14.0517 -15.606 9
      vertex -14.0517 -15.606 0
    endloop
  endfacet
  facet normal 0.994522 0.104528 0
    outer loop
      vertex -20.5411 -4.36615 9
      vertex -21 0 0
      vertex -21 0 9
    endloop
  endfacet
  facet normal 0.994522 0.104528 0
    outer loop
      vertex -21 0 0
      vertex -20.5411 -4.36615 9
      vertex -20.5411 -4.36615 0
    endloop
  endfacet
  facet normal 0.587791 0.809013 -0
    outer loop
      vertex -10.5 -18.1865 0
      vertex -14.0517 -15.606 9
      vertex -10.5 -18.1865 9
    endloop
  endfacet
  facet normal 0.587791 0.809013 0
    outer loop
      vertex -14.0517 -15.606 9
      vertex -10.5 -18.1865 0
      vertex -14.0517 -15.606 0
    endloop
  endfacet
  facet normal 0.866026 -0.499999 0
    outer loop
      vertex -19.1845 8.54147 9
      vertex -16.9894 12.3435 0
      vertex -16.9894 12.3435 9
    endloop
  endfacet
  facet normal 0.866026 -0.499999 0
    outer loop
      vertex -16.9894 12.3435 0
      vertex -19.1845 8.54147 9
      vertex -19.1845 8.54147 0
    endloop
  endfacet
  facet normal -0.207902 0.97815 0
    outer loop
      vertex -1.98604 18.8959 0
      vertex -5.87132 18.0701 9
      vertex -1.98604 18.8959 9
    endloop
  endfacet
  facet normal -0.207902 0.97815 0
    outer loop
      vertex -5.87132 18.0701 9
      vertex -1.98604 18.8959 0
      vertex -5.87132 18.0701 0
    endloop
  endfacet
  facet normal 0 -1 0
    outer loop
      vertex -1.98604 -18.8959 0
      vertex 0 -18.8959 9
      vertex -1.98604 -18.8959 9
    endloop
  endfacet
  facet normal 0 -1 -0
    outer loop
      vertex 0 -18.8959 9
      vertex -1.98604 -18.8959 0
      vertex 0 -18.8959 0
    endloop
  endfacet
  facet normal 0 1 -0
    outer loop
      vertex 0 18.8959 0
      vertex -1.98604 18.8959 9
      vertex 0 18.8959 9
    endloop
  endfacet
  facet normal 0 1 0
    outer loop
      vertex -1.98604 18.8959 9
      vertex 0 18.8959 0
      vertex -1.98604 18.8959 0
    endloop
  endfacet
  facet normal -0.743158 -0.669116 0
    outer loop
      vertex -12.7135 -14.1198 0
      vertex -15.3713 -11.1679 9
      vertex -15.3713 -11.1679 0
    endloop
  endfacet
  facet normal -0.743158 -0.669116 0
    outer loop
      vertex -15.3713 -11.1679 9
      vertex -12.7135 -14.1198 0
      vertex -12.7135 -14.1198 9
    endloop
  endfacet
  facet normal -0.587778 -0.809022 0
    outer loop
      vertex -12.7135 -14.1198 0
      vertex -9.5 -16.4545 9
      vertex -12.7135 -14.1198 9
    endloop
  endfacet
  facet normal -0.587778 -0.809022 -0
    outer loop
      vertex -9.5 -16.4545 9
      vertex -12.7135 -14.1198 0
      vertex -9.5 -16.4545 0
    endloop
  endfacet
  facet normal -0.406738 0.913545 0
    outer loop
      vertex -5.87132 18.0701 0
      vertex -9.5 16.4545 9
      vertex -5.87132 18.0701 9
    endloop
  endfacet
  facet normal -0.406738 0.913545 0
    outer loop
      vertex -9.5 16.4545 9
      vertex -5.87132 18.0701 0
      vertex -9.5 16.4545 0
    endloop
  endfacet
  facet normal -0.866017 -0.500014 0
    outer loop
      vertex -15.3713 -11.1679 0
      vertex -17.3574 -7.728 9
      vertex -17.3574 -7.728 0
    endloop
  endfacet
  facet normal -0.866017 -0.500014 0
    outer loop
      vertex -17.3574 -7.728 9
      vertex -15.3713 -11.1679 0
      vertex -15.3713 -11.1679 9
    endloop
  endfacet
  facet normal -0.866017 0.500014 0
    outer loop
      vertex -17.3574 7.728 0
      vertex -15.3713 11.1679 9
      vertex -15.3713 11.1679 0
    endloop
  endfacet
  facet normal -0.866017 0.500014 0
    outer loop
      vertex -15.3713 11.1679 9
      vertex -17.3574 7.728 0
      vertex -17.3574 7.728 9
    endloop
  endfacet
  facet normal -0.95106 0.309007 0
    outer loop
      vertex -18.5848 3.95032 0
      vertex -17.3574 7.728 9
      vertex -17.3574 7.728 0
    endloop
  endfacet
  facet normal -0.95106 0.309007 0
    outer loop
      vertex -17.3574 7.728 9
      vertex -18.5848 3.95032 0
      vertex -18.5848 3.95032 9
    endloop
  endfacet
  facet normal -0.994522 0.10453 0
    outer loop
      vertex -19 0 0
      vertex -18.5848 3.95032 9
      vertex -18.5848 3.95032 0
    endloop
  endfacet
  facet normal -0.994522 0.10453 0
    outer loop
      vertex -18.5848 3.95032 9
      vertex -19 0 0
      vertex -19 0 9
    endloop
  endfacet
  facet normal -0.406738 -0.913545 0
    outer loop
      vertex -9.5 -16.4545 0
      vertex -5.87132 -18.0701 9
      vertex -9.5 -16.4545 9
    endloop
  endfacet
  facet normal -0.406738 -0.913545 -0
    outer loop
      vertex -5.87132 -18.0701 9
      vertex -9.5 -16.4545 0
      vertex -5.87132 -18.0701 0
    endloop
  endfacet
  facet normal -0.95106 -0.309007 0
    outer loop
      vertex -17.3574 -7.728 0
      vertex -18.5848 -3.95032 9
      vertex -18.5848 -3.95032 0
    endloop
  endfacet
  facet normal -0.95106 -0.309007 0
    outer loop
      vertex -18.5848 -3.95032 9
      vertex -17.3574 -7.728 0
      vertex -17.3574 -7.728 9
    endloop
  endfacet
  facet normal -0.743158 0.669116 0
    outer loop
      vertex -15.3713 11.1679 0
      vertex -12.7135 14.1198 9
      vertex -12.7135 14.1198 0
    endloop
  endfacet
  facet normal -0.743158 0.669116 0
    outer loop
      vertex -12.7135 14.1198 9
      vertex -15.3713 11.1679 0
      vertex -15.3713 11.1679 9
    endloop
  endfacet
  facet normal -0.587778 0.809022 0
    outer loop
      vertex -9.5 16.4545 0
      vertex -12.7135 14.1198 9
      vertex -9.5 16.4545 9
    endloop
  endfacet
  facet normal -0.587778 0.809022 0
    outer loop
      vertex -12.7135 14.1198 9
      vertex -9.5 16.4545 0
      vertex -12.7135 14.1198 0
    endloop
  endfacet
  facet normal -0.994522 -0.10453 0
    outer loop
      vertex -18.5848 -3.95032 0
      vertex -19 0 9
      vertex -19 0 0
    endloop
  endfacet
  facet normal -0.994522 -0.10453 0
    outer loop
      vertex -19 0 9
      vertex -18.5848 -3.95032 0
      vertex -18.5848 -3.95032 9
    endloop
  endfacet
  facet normal -0.207902 -0.97815 0
    outer loop
      vertex -5.87132 -18.0701 0
      vertex -1.98604 -18.8959 9
      vertex -5.87132 -18.0701 9
    endloop
  endfacet
  facet normal -0.207902 -0.97815 -0
    outer loop
      vertex -1.98604 -18.8959 9
      vertex -5.87132 -18.0701 0
      vertex -1.98604 -18.8959 0
    endloop
  endfacet
  facet normal -1 0 0
    outer loop
      vertex 0 18.8959 0
      vertex 0 19 9
      vertex 0 19 0
    endloop
  endfacet
  facet normal -1 -0 0
    outer loop
      vertex 0 19 9
      vertex 0 18.8959 0
      vertex 0 18.8959 9
    endloop
  endfacet
  facet normal -1 0 0
    outer loop
      vertex 0 -18.9 0
      vertex 0 -18.8959 9
      vertex 0 -18.8959 0
    endloop
  endfacet
  facet normal -1 -0 0
    outer loop
      vertex 0 -18.8959 9
      vertex 0 -18.9 0
      vertex 0 -18.9 9
    endloop
  endfacet
  facet normal -1 0 0
    outer loop
      vertex 8 19 0
      vertex 8 19.5 9
      vertex 8 19.5 0
    endloop
  endfacet
  facet normal -1 -0 0
    outer loop
      vertex 8 19.5 9
      vertex 8 19 0
      vertex 8 19 9
    endloop
  endfacet
  facet normal 0 1 -0
    outer loop
      vertex 8 19 0
      vertex 0 19 9
      vertex 8 19 9
    endloop
  endfacet
  facet normal 0 1 0
    outer loop
      vertex 0 19 9
      vertex 8 19 0
      vertex 0 19 0
    endloop
  endfacet
  facet normal -1 0 0
    outer loop
      vertex 8 -21.3237 0
      vertex 8 -21.4 9
      vertex 8 -21.3237 9
    endloop
  endfacet
  facet normal -1 0 0
    outer loop
      vertex 8 -23.5 0
      vertex 8 -21.4 9
      vertex 8 -21.3237 0
    endloop
  endfacet
  facet normal -1 0 0
    outer loop
      vertex 8 -23.5 10
      vertex 8 -21.4 9
      vertex 8 -23.5 0
    endloop
  endfacet
  facet normal -1 0 0
    outer loop
      vertex 8 -21.4 9
      vertex 8 -23.5 10
      vertex 8 -21.4 10
    endloop
  endfacet
  facet normal 1 -0 0
    outer loop
      vertex -2 -23.5 10
      vertex -2 -21.8269 0
      vertex -2 -21.8269 10
    endloop
  endfacet
  facet normal 1 0 0
    outer loop
      vertex -2 -21.8269 0
      vertex -2 -23.5 10
      vertex -2 -23.5 0
    endloop
  endfacet
  facet normal 1 -0 0
    outer loop
      vertex -2 -21.325 9
      vertex -2 -20.885 0
      vertex -2 -20.885 9
    endloop
  endfacet
  facet normal 1 0 0
    outer loop
      vertex -2 -20.885 0
      vertex -2 -21.325 9
      vertex -2 -21.325 0
    endloop
  endfacet
  facet normal 0 -1 0
    outer loop
      vertex 0 -18.9 0
      vertex 7.92428 -18.9 9
      vertex 0 -18.9 9
    endloop
  endfacet
  facet normal 0 -1 -0
    outer loop
      vertex 7.92428 -18.9 9
      vertex 0 -18.9 0
      vertex 7.92428 -18.9 0
    endloop
  endfacet
  facet normal 0 -1 0
    outer loop
      vertex -1.14301 -21.4 9
      vertex 8 -21.4 10
      vertex -1.14301 -21.4 10
    endloop
  endfacet
  facet normal 0 -1 -0
    outer loop
      vertex 8 -21.4 10
      vertex -1.14301 -21.4 9
      vertex 8 -21.4 9
    endloop
  endfacet
  facet normal 0.173649 -0.984808 0
    outer loop
      vertex 7.92428 -18.9 0
      vertex 22.5 -16.3299 9
      vertex 7.92428 -18.9 9
    endloop
  endfacet
  facet normal 0.173649 -0.984808 0
    outer loop
      vertex 22.5 -16.3299 9
      vertex 7.92428 -18.9 0
      vertex 22.5 -16.3299 0
    endloop
  endfacet
  facet normal -0.173652 0.984807 0
    outer loop
      vertex 22.5 -18.7669 0
      vertex 8 -21.3237 9
      vertex 22.5 -18.7669 9
    endloop
  endfacet
  facet normal -0.173652 0.984807 0
    outer loop
      vertex 8 -21.3237 9
      vertex 22.5 -18.7669 0
      vertex 8 -21.3237 0
    endloop
  endfacet
  facet normal -0.087156 -0.996195 -2.2783e-05
    outer loop
      vertex -22.5 -19.5315 10
      vertex -2 -21.325 9
      vertex -1.14301 -21.4 10
    endloop
  endfacet
  facet normal -0.0871549 -0.996195 0
    outer loop
      vertex -22.5 -19.5315 0
      vertex -2 -21.325 9
      vertex -22.5 -19.5315 10
    endloop
  endfacet
  facet normal -0.0871549 -0.996195 -0
    outer loop
      vertex -2 -21.325 9
      vertex -22.5 -19.5315 0
      vertex -2 -21.325 0
    endloop
  endfacet
  facet normal -0.0871824 -0.996192 -0
    outer loop
      vertex -1.14301 -21.4 10
      vertex -2 -21.325 9
      vertex -1.14301 -21.4 9
    endloop
  endfacet
  facet normal 0.0871549 0.996195 -0
    outer loop
      vertex -2 -21.8269 0
      vertex -22.5 -20.0334 10
      vertex -2 -21.8269 10
    endloop
  endfacet
  facet normal 0.0871549 0.996195 0
    outer loop
      vertex -22.5 -20.0334 10
      vertex -2 -21.8269 0
      vertex -22.5 -20.0334 0
    endloop
  endfacet
  facet normal 1 0 0
    outer loop
      vertex 22.5 -16.5 17
      vertex 22.5 -18.7669 9
      vertex 22.5 -16.5 10
    endloop
  endfacet
  facet normal 1 0 0
    outer loop
      vertex 22.5 -23.5 -4
      vertex 22.5 -18.7669 9
      vertex 22.5 -23.5 17
    endloop
  endfacet
  facet normal 1 -0 0
    outer loop
      vertex 22.5 -23.5 17
      vertex 22.5 -18.7669 9
      vertex 22.5 -16.5 17
    endloop
  endfacet
  facet normal 1 0 0
    outer loop
      vertex 22.5 -16.3299 0
      vertex 22.5 19.5 10
      vertex 22.5 -16.3299 9
    endloop
  endfacet
  facet normal 1 -0 0
    outer loop
      vertex 22.5 -16.5 10
      vertex 22.5 -16.3299 9
      vertex 22.5 19.5 10
    endloop
  endfacet
  facet normal 1 0 0
    outer loop
      vertex 22.5 -16.3299 9
      vertex 22.5 -16.5 10
      vertex 22.5 -18.7669 9
    endloop
  endfacet
  facet normal 1 0 0
    outer loop
      vertex 22.5 19.5 10
      vertex 22.5 -16.3299 0
      vertex 22.5 19.5 -4
    endloop
  endfacet
  facet normal 1 0 0
    outer loop
      vertex 22.5 -23.5 -4
      vertex 22.5 -16.3299 0
      vertex 22.5 -18.7669 0
    endloop
  endfacet
  facet normal 1 0 0
    outer loop
      vertex 22.5 -16.3299 0
      vertex 22.5 -23.5 -4
      vertex 22.5 19.5 -4
    endloop
  endfacet
  facet normal 1 0 0
    outer loop
      vertex 22.5 -18.7669 9
      vertex 22.5 -23.5 -4
      vertex 22.5 -18.7669 0
    endloop
  endfacet
  facet normal 0 0 1
    outer loop
      vertex 22.5 19.5 10
      vertex 15.5 -16.5 10
      vertex 22.5 -16.5 10
    endloop
  endfacet
  facet normal 0 0 1
    outer loop
      vertex 15.5 -16.5 10
      vertex 8 -21.4 10
      vertex 15.5 -23.5 10
    endloop
  endfacet
  facet normal 0 0 1
    outer loop
      vertex -1.14301 -21.4 10
      vertex 15.5 -16.5 10
      vertex 22.5 19.5 10
    endloop
  endfacet
  facet normal 0 0 1
    outer loop
      vertex 15.5 -16.5 10
      vertex -1.14301 -21.4 10
      vertex 8 -21.4 10
    endloop
  endfacet
  facet normal -0 0 1
    outer loop
      vertex -22.5 19.5 10
      vertex -1.14301 -21.4 10
      vertex 22.5 19.5 10
    endloop
  endfacet
  facet normal 0 0 1
    outer loop
      vertex -1.14301 -21.4 10
      vertex -22.5 19.5 10
      vertex -22.5 -19.5315 10
    endloop
  endfacet
  facet normal 0 0 1
    outer loop
      vertex 15.5 -23.5 10
      vertex 8 -21.4 10
      vertex 8 -23.5 10
    endloop
  endfacet
  facet normal 0 0 1
    outer loop
      vertex -22.5 -23.5 10
      vertex -2 -21.8269 10
      vertex -22.5 -20.0334 10
    endloop
  endfacet
  facet normal 0 0 1
    outer loop
      vertex -2 -21.8269 10
      vertex -22.5 -23.5 10
      vertex -2 -23.5 10
    endloop
  endfacet
  facet normal 0 0 -1
    outer loop
      vertex -3 -25.5 -4
      vertex -4 -25.5 -4
      vertex -3 -23.5 -4
    endloop
  endfacet
  facet normal 0 0 -1
    outer loop
      vertex 9.6 -25.5 -4
      vertex 8.6 -25.5 -4
      vertex 9.6 -23.5 -4
    endloop
  endfacet
  facet normal 0 0 -1
    outer loop
      vertex 9.6 -23.5 -4
      vertex 22.5 19.5 -4
      vertex 22.5 -23.5 -4
    endloop
  endfacet
  facet normal 0 0 -1
    outer loop
      vertex 8.6 -23.5 -4
      vertex 9.6 -23.5 -4
      vertex 8.6 -25.5 -4
    endloop
  endfacet
  facet normal 0 0 -1
    outer loop
      vertex 9.6 -23.5 -4
      vertex 8.6 -23.5 -4
      vertex 22.5 19.5 -4
    endloop
  endfacet
  facet normal 0 0 -1
    outer loop
      vertex -3 -23.5 -4
      vertex 22.5 19.5 -4
      vertex 8.6 -23.5 -4
    endloop
  endfacet
  facet normal 0 0 -1
    outer loop
      vertex -4 -23.5 -4
      vertex -3 -23.5 -4
      vertex -4 -25.5 -4
    endloop
  endfacet
  facet normal 0 0 -1
    outer loop
      vertex -22.5 19.5 -4
      vertex -3 -23.5 -4
      vertex -4 -23.5 -4
    endloop
  endfacet
  facet normal 0 0 -1
    outer loop
      vertex -22.5 19.5 -4
      vertex -4 -23.5 -4
      vertex -22.5 -23.5 -4
    endloop
  endfacet
  facet normal 0 0 -1
    outer loop
      vertex -3 -23.5 -4
      vertex -22.5 19.5 -4
      vertex 22.5 19.5 -4
    endloop
  endfacet
  facet normal -1 0 0
    outer loop
      vertex -22.5 19.5 -4
      vertex -22.5 -19.5315 0
      vertex -22.5 19.5 10
    endloop
  endfacet
  facet normal -1 0 0
    outer loop
      vertex -22.5 -23.5 -4
      vertex -22.5 -19.5315 0
      vertex -22.5 19.5 -4
    endloop
  endfacet
  facet normal -1 -0 0
    outer loop
      vertex -22.5 -19.5315 0
      vertex -22.5 -23.5 -4
      vertex -22.5 -20.0334 0
    endloop
  endfacet
  facet normal -1 0 0
    outer loop
      vertex -22.5 -23.5 10
      vertex -22.5 -20.0334 0
      vertex -22.5 -23.5 -4
    endloop
  endfacet
  facet normal -1 0 0
    outer loop
      vertex -22.5 -20.0334 0
      vertex -22.5 -23.5 10
      vertex -22.5 -20.0334 10
    endloop
  endfacet
  facet normal -1 -0 0
    outer loop
      vertex -22.5 19.5 10
      vertex -22.5 -19.5315 0
      vertex -22.5 -19.5315 10
    endloop
  endfacet
  facet normal 0 1 0
    outer loop
      vertex 22.5 19.5 10
      vertex 8 19.5 9
      vertex -22.5 19.5 10
    endloop
  endfacet
  facet normal 0 1 0
    outer loop
      vertex 22.5 19.5 10
      vertex 8 19.5 0
      vertex 8 19.5 9
    endloop
  endfacet
  facet normal 0 1 0
    outer loop
      vertex 8 19.5 0
      vertex 22.5 19.5 -4
      vertex -7.5499 19.5 0
    endloop
  endfacet
  facet normal 0 1 -0
    outer loop
      vertex 22.5 19.5 -4
      vertex 8 19.5 0
      vertex 22.5 19.5 10
    endloop
  endfacet
  facet normal 0 1 -0
    outer loop
      vertex -7.5499 19.5 9
      vertex -22.5 19.5 10
      vertex 8 19.5 9
    endloop
  endfacet
  facet normal 0 1 -0
    outer loop
      vertex -7.5499 19.5 0
      vertex -22.5 19.5 10
      vertex -7.5499 19.5 9
    endloop
  endfacet
  facet normal 0 1 0
    outer loop
      vertex -7.5499 19.5 0
      vertex -22.5 19.5 -4
      vertex -22.5 19.5 10
    endloop
  endfacet
  facet normal 0 1 0
    outer loop
      vertex -22.5 19.5 -4
      vertex -7.5499 19.5 0
      vertex 22.5 19.5 -4
    endloop
  endfacet
  facet normal 0 -1 0
    outer loop
      vertex -22.5 -23.5 10
      vertex -4 -23.5 9.7
      vertex -2 -23.5 10
    endloop
  endfacet
  facet normal 0 -1 0
    outer loop
      vertex -22.5 -23.5 -4
      vertex -4 -23.5 9.7
      vertex -22.5 -23.5 10
    endloop
  endfacet
  facet normal 0 -1 -0
    outer loop
      vertex -4 -23.5 9.7
      vertex -22.5 -23.5 -4
      vertex -4 -23.5 -4
    endloop
  endfacet
  facet normal 0 -1 0
    outer loop
      vertex -3 -23.5 9.7
      vertex -2 -23.5 10
      vertex -4 -23.5 9.7
    endloop
  endfacet
  facet normal 0 -1 0
    outer loop
      vertex -3 -23.5 9.7
      vertex -2 -23.5 0
      vertex -2 -23.5 10
    endloop
  endfacet
  facet normal 0 -1 0
    outer loop
      vertex 8.6 -23.5 -4
      vertex -2 -23.5 0
      vertex -3 -23.5 -4
    endloop
  endfacet
  facet normal 0 -1 0
    outer loop
      vertex -3 -23.5 -4
      vertex -2 -23.5 0
      vertex -3 -23.5 9.7
    endloop
  endfacet
  facet normal 0 -1 0
    outer loop
      vertex 9.6 -23.5 9.7
      vertex 8 -23.5 10
      vertex 8.6 -23.5 9.7
    endloop
  endfacet
  facet normal 0 -1 0
    outer loop
      vertex 8 -23.5 0
      vertex 8.6 -23.5 9.7
      vertex 8 -23.5 10
    endloop
  endfacet
  facet normal 0 -1 0
    outer loop
      vertex 8 -23.5 0
      vertex 8.6 -23.5 -4
      vertex 8.6 -23.5 9.7
    endloop
  endfacet
  facet normal 0 -1 0
    outer loop
      vertex -2 -23.5 0
      vertex 8.6 -23.5 -4
      vertex 8 -23.5 0
    endloop
  endfacet
  facet normal 0 -1 0
    outer loop
      vertex 15.5 -23.5 10
      vertex 22.5 -23.5 17
      vertex 15.5 -23.5 17
    endloop
  endfacet
  facet normal 0 -1 0
    outer loop
      vertex 8 -23.5 10
      vertex 9.6 -23.5 9.7
      vertex 15.5 -23.5 10
    endloop
  endfacet
  facet normal 0 -1 0
    outer loop
      vertex 9.6 -23.5 -4
      vertex 15.5 -23.5 10
      vertex 9.6 -23.5 9.7
    endloop
  endfacet
  facet normal 0 -1 0
    outer loop
      vertex 22.5 -23.5 -4
      vertex 15.5 -23.5 10
      vertex 9.6 -23.5 -4
    endloop
  endfacet
  facet normal 0 -1 0
    outer loop
      vertex 15.5 -23.5 10
      vertex 22.5 -23.5 -4
      vertex 22.5 -23.5 17
    endloop
  endfacet
  facet normal 1 -0 0
    outer loop
      vertex -3 -25.5 9.7
      vertex -3 -23.5 -4
      vertex -3 -23.5 9.7
    endloop
  endfacet
  facet normal 1 0 0
    outer loop
      vertex -3 -23.5 -4
      vertex -3 -25.5 9.7
      vertex -3 -25.5 -4
    endloop
  endfacet
  facet normal -0 0 1
    outer loop
      vertex -4 -23.5 9.7
      vertex -3 -25.5 9.7
      vertex -3 -23.5 9.7
    endloop
  endfacet
  facet normal 0 0 1
    outer loop
      vertex -3 -25.5 9.7
      vertex -4 -23.5 9.7
      vertex -4 -25.5 9.7
    endloop
  endfacet
  facet normal -1 0 0
    outer loop
      vertex -4 -25.5 -4
      vertex -4 -23.5 9.7
      vertex -4 -23.5 -4
    endloop
  endfacet
  facet normal -1 -0 0
    outer loop
      vertex -4 -23.5 9.7
      vertex -4 -25.5 -4
      vertex -4 -25.5 9.7
    endloop
  endfacet
  facet normal 0 -1 0
    outer loop
      vertex -4 -25.5 -4
      vertex -3 -25.5 9.7
      vertex -4 -25.5 9.7
    endloop
  endfacet
  facet normal 0 -1 -0
    outer loop
      vertex -3 -25.5 9.7
      vertex -4 -25.5 -4
      vertex -3 -25.5 -4
    endloop
  endfacet
  facet normal 1 -0 0
    outer loop
      vertex 9.6 -25.5 9.7
      vertex 9.6 -23.5 -4
      vertex 9.6 -23.5 9.7
    endloop
  endfacet
  facet normal 1 0 0
    outer loop
      vertex 9.6 -23.5 -4
      vertex 9.6 -25.5 9.7
      vertex 9.6 -25.5 -4
    endloop
  endfacet
  facet normal -0 0 1
    outer loop
      vertex 8.6 -23.5 9.7
      vertex 9.6 -25.5 9.7
      vertex 9.6 -23.5 9.7
    endloop
  endfacet
  facet normal 0 0 1
    outer loop
      vertex 9.6 -25.5 9.7
      vertex 8.6 -23.5 9.7
      vertex 8.6 -25.5 9.7
    endloop
  endfacet
  facet normal -1 0 0
    outer loop
      vertex 8.6 -25.5 -4
      vertex 8.6 -23.5 9.7
      vertex 8.6 -23.5 -4
    endloop
  endfacet
  facet normal -1 -0 0
    outer loop
      vertex 8.6 -23.5 9.7
      vertex 8.6 -25.5 -4
      vertex 8.6 -25.5 9.7
    endloop
  endfacet
  facet normal 0 -1 0
    outer loop
      vertex 8.6 -25.5 -4
      vertex 9.6 -25.5 9.7
      vertex 8.6 -25.5 9.7
    endloop
  endfacet
  facet normal 0 -1 -0
    outer loop
      vertex 9.6 -25.5 9.7
      vertex 8.6 -25.5 -4
      vertex 9.6 -25.5 -4
    endloop
  endfacet
  facet normal -0 0 1
    outer loop
      vertex 15.5 -16.5 17
      vertex 22.5 -23.5 17
      vertex 22.5 -16.5 17
    endloop
  endfacet
  facet normal 0 0 1
    outer loop
      vertex 22.5 -23.5 17
      vertex 15.5 -16.5 17
      vertex 15.5 -23.5 17
    endloop
  endfacet
  facet normal -1 0 0
    outer loop
      vertex 15.5 -23.5 10
      vertex 15.5 -16.5 17
      vertex 15.5 -16.5 10
    endloop
  endfacet
  facet normal -1 -0 0
    outer loop
      vertex 15.5 -16.5 17
      vertex 15.5 -23.5 10
      vertex 15.5 -23.5 17
    endloop
  endfacet
  facet normal 0 1 -0
    outer loop
      vertex 22.5 -16.5 10
      vertex 15.5 -16.5 17
      vertex 22.5 -16.5 17
    endloop
  endfacet
  facet normal 0 1 0
    outer loop
      vertex 15.5 -16.5 17
      vertex 22.5 -16.5 10
      vertex 15.5 -16.5 10
    endloop
  endfacet
endsolid OpenSCAD_Model
